<svg width="36" height="32" viewBox="0 0 36 32" fill="none" xmlns="http://www.w3.org/2000/svg">
<path d="M30.5904 13.825H18.0452V18.4656H25.2119C24.9029 19.9656 23.9654 21.2344 22.5522 22.0844C21.3577 22.8031 19.8334 23.2281 18.0417 23.2281C14.573 23.2281 11.639 21.1187 10.5904 18.2844C10.3265 17.5656 10.1737 16.7969 10.1737 16.0063C10.1737 15.2156 10.3265 14.4469 10.5904 13.7281C11.6424 10.8969 14.5765 8.7875 18.0452 8.7875C20.0001 8.7875 21.7536 9.39375 23.1355 10.5813L26.9549 7.14062C24.6459 5.20312 21.6355 4.01562 18.0452 4.01562C12.8404 4.01562 8.33689 6.70312 6.14592 10.6219C5.24314 12.2406 4.72925 14.0719 4.72925 16.0094C4.72925 17.9469 5.24314 19.775 6.14592 21.3937C8.33689 25.3125 12.8404 28 18.0452 28C21.6424 28 24.6563 26.925 26.8577 25.0938C29.3751 23.0062 30.8299 19.9313 30.8299 16.2781C30.8299 15.4281 30.7466 14.6125 30.5904 13.825Z" fill="#F5F9FF"/>
</svg>
