<svg width="499" height="222" viewBox="0 0 499 222" fill="none" xmlns="http://www.w3.org/2000/svg">
<g clip-path="url(#clip0_237_545)">
<path d="M212.434 141.828H10.2789C7.55374 141.825 4.94103 140.739 3.01401 138.808C1.087 136.877 0.00305886 134.259 0 131.528V7.84372C0.00229702 5.76419 0.827705 3.77049 2.29514 2.30001C3.76257 0.829536 5.75219 0.00237403 7.82749 0H214.77C216.876 0.00237697 218.895 0.841796 220.384 2.33409C221.873 3.82638 222.711 5.84967 222.713 7.96007V131.528C222.71 134.259 221.626 136.877 219.699 138.808C217.772 140.739 215.16 141.825 212.434 141.828Z" fill="white"/>
<path d="M212.434 141.828H10.2789C7.55374 141.825 4.94103 140.739 3.01401 138.808C1.087 136.877 0.00305886 134.259 0 131.528V7.84372C0.00229702 5.76419 0.827705 3.77049 2.29514 2.30001C3.76257 0.829536 5.75219 0.00237403 7.82749 0H214.77C216.876 0.00237697 218.895 0.841796 220.384 2.33409C221.873 3.82638 222.711 5.84967 222.713 7.96007V131.528C222.71 134.259 221.626 136.877 219.699 138.808C217.772 140.739 215.16 141.825 212.434 141.828ZM7.82749 2.227C6.34144 2.22874 4.91675 2.82108 3.86597 3.87405C2.8152 4.92701 2.22414 6.35463 2.22247 7.84372V131.528C2.22491 133.668 3.07449 135.72 4.58485 137.234C6.0952 138.747 8.14298 139.598 10.2789 139.601H212.434C214.57 139.598 216.618 138.747 218.128 137.234C219.639 135.72 220.488 133.668 220.491 131.528V7.96007C220.489 6.4401 219.886 4.98285 218.813 3.90806C217.741 2.83327 216.286 2.2287 214.77 2.227H7.82749Z" fill="#95A0B6"/>
<path d="M92.2946 110.513H31.721C30.239 110.511 28.8082 109.97 27.6939 108.991C26.5797 108.012 25.8577 106.661 25.662 105.189C25.6252 104.924 25.6076 104.656 25.6092 104.389V37.4393C25.6111 35.8156 26.2556 34.2589 27.4014 33.1108C28.5472 31.9627 30.1007 31.3168 31.721 31.315H92.2946C93.915 31.3168 95.4685 31.9627 96.6143 33.1108C97.76 34.2589 98.4045 35.8156 98.4064 37.4393V104.389C98.4045 106.012 97.76 107.569 96.6143 108.717C95.4685 109.865 93.915 110.511 92.2946 110.513ZM31.721 34.6555C30.9845 34.6564 30.2784 34.9499 29.7576 35.4718C29.2368 35.9937 28.9438 36.7012 28.943 37.4393V104.389C28.9418 104.503 28.9488 104.617 28.9641 104.731C29.0492 105.404 29.3759 106.023 29.8833 106.472C30.3907 106.922 31.0439 107.17 31.721 107.172H92.2946C93.0311 107.171 93.7373 106.878 94.2581 106.356C94.7789 105.834 95.0718 105.127 95.0727 104.389V37.4393C95.0718 36.7012 94.7789 35.9937 94.2581 35.4718C93.7373 34.9499 93.0311 34.6564 92.2946 34.6555H31.721Z" fill="#95A0B6"/>
<path d="M192.659 88.7438H119.317C118.139 88.7438 117.008 88.2745 116.174 87.4392C115.341 86.6039 114.872 85.471 114.872 84.2898C114.872 83.1085 115.341 81.9756 116.174 81.1403C117.008 80.305 118.139 79.8358 119.317 79.8358H192.659C193.838 79.8358 194.968 80.305 195.802 81.1403C196.636 81.9756 197.104 83.1085 197.104 84.2898C197.104 85.471 196.636 86.6039 195.802 87.4392C194.968 88.2745 193.838 88.7438 192.659 88.7438Z" fill="#95A0B6"/>
<path d="M159.322 69.8143H119.317C118.139 69.8143 117.008 69.345 116.174 68.5097C115.341 67.6744 114.872 66.5415 114.872 65.3603C114.872 64.179 115.341 63.0461 116.174 62.2108C117.008 61.3755 118.139 60.9062 119.317 60.9062H159.322C160.501 60.9062 161.631 61.3755 162.465 62.2108C163.299 63.0461 163.767 64.179 163.767 65.3603C163.767 66.5415 163.299 67.6744 162.465 68.5097C161.631 69.345 160.501 69.8143 159.322 69.8143Z" fill="#95A0B6"/>
<path d="M81.9803 69.0738C81.9803 78.9134 72.9006 77.4251 61.7002 77.4251C50.4999 77.4251 41.4202 78.9134 41.4202 69.0738C41.4202 59.2343 45.8554 41.7931 61.7002 41.7931C78.091 41.7931 81.9803 59.2343 81.9803 69.0738Z" fill="#273140"/>
<path d="M82.8006 85.6338C82.4094 84.5024 81.6296 83.5473 80.6004 82.9391C80.4017 82.8168 80.1936 82.7107 79.978 82.6217C79.0754 82.2456 78.083 82.1412 77.1221 82.3212C76.1612 82.5012 75.2734 82.9578 74.5673 83.6352C73.8613 84.3126 73.3674 85.1815 73.1462 86.1356C72.925 87.0897 72.986 88.0877 73.3217 89.0077L81.4004 107.408H92.0405L82.8006 85.6338Z" fill="#485467"/>
<path d="M47.5465 86.6359C46.9079 86.3267 46.2113 86.1563 45.5024 86.1358C44.7936 86.1153 44.0883 86.2452 43.4331 86.517C42.7778 86.7888 42.1873 87.1963 41.7002 87.7129C41.2132 88.2294 40.8406 88.8433 40.6069 89.5143L33.0839 107.247C33.4691 107.355 33.8673 107.409 34.2673 107.408H43.7073L50.0856 92.8882C50.511 91.716 50.4868 90.4273 50.0176 89.2721C49.5485 88.1168 48.6678 87.1773 47.5465 86.6359Z" fill="#485467"/>
<path d="M61.6324 77.4087C69.1692 77.4087 75.279 71.2865 75.279 63.7343C75.279 56.1822 69.1692 50.0599 61.6324 50.0599C54.0956 50.0599 47.9858 56.1822 47.9858 63.7343C47.9858 71.2865 54.0956 77.4087 61.6324 77.4087Z" fill="#FFB8B8"/>
<path d="M80.8391 83.1562C80.7615 83.0838 80.6837 83.0059 80.6004 82.939C79.6491 82.0796 78.5232 81.4369 77.3002 81.0554C76.0773 80.6738 74.7863 80.5624 73.5163 80.7287L48.3688 83.9189C46.0652 84.2044 43.9632 85.3781 42.5089 87.1909C41.0546 89.0037 40.3623 91.3129 40.579 93.6286C40.9236 97.5148 41.4792 102.42 42.3683 107.408H82.095L83.5562 90.3939C83.6738 89.0606 83.4906 87.7178 83.0203 86.465C82.55 85.2121 81.8045 84.0813 80.8391 83.1562Z" fill="#485467"/>
<path d="M45.8651 62.3928H51.2626L53.6438 55.7118L54.1199 62.3928H56.6997L58.0887 58.4956L58.3665 62.3928H77.5354C77.5354 58.5537 76.0134 54.8718 73.3042 52.1571C70.595 49.4424 66.9206 47.9173 63.0893 47.9173H60.3112C56.4798 47.9173 52.8054 49.4424 50.0963 52.1571C47.3871 54.8718 45.8651 58.5537 45.8651 62.3928Z" fill="#273140"/>
<path d="M276.287 131.528V7.96007C276.289 5.84967 277.127 3.82638 278.616 2.33409C280.105 0.841796 282.124 0.00237697 284.23 0H491.173C493.248 0.00237403 495.237 0.829536 496.705 2.30001C498.172 3.77049 498.998 5.76419 499 7.84372V131.528C498.997 134.259 497.913 136.877 495.986 138.808C494.059 140.739 491.446 141.825 488.721 141.828H286.566C283.84 141.825 281.228 140.739 279.301 138.808C277.374 136.877 276.29 134.259 276.287 131.528Z" fill="white"/>
<path d="M276.287 131.528V7.96007C276.289 5.84967 277.127 3.82638 278.616 2.33409C280.105 0.841796 282.124 0.00237697 284.23 0H491.173C493.248 0.00237403 495.237 0.829536 496.705 2.30001C498.172 3.77049 498.998 5.76419 499 7.84372V131.528C498.997 134.259 497.913 136.877 495.986 138.808C494.059 140.739 491.446 141.825 488.721 141.828H286.566C283.84 141.825 281.228 140.739 279.301 138.808C277.374 136.877 276.29 134.259 276.287 131.528ZM284.23 2.227C282.714 2.2287 281.259 2.83327 280.187 3.90806C279.114 4.98285 278.511 6.4401 278.509 7.96007V131.528C278.512 133.668 279.361 135.72 280.872 137.234C282.382 138.747 284.43 139.598 286.566 139.601H488.721C490.857 139.598 492.905 138.747 494.415 137.234C495.925 135.72 496.775 133.668 496.778 131.528V7.84372C496.776 6.35463 496.185 4.92701 495.134 3.87405C494.083 2.82108 492.659 2.22874 491.173 2.227H284.23Z" fill="#95A0B6"/>
<path d="M400.594 104.389V37.4393C400.595 35.8156 401.24 34.2589 402.386 33.1108C403.532 31.9627 405.085 31.3168 406.705 31.315H467.279C468.899 31.3168 470.453 31.9627 471.599 33.1108C472.744 34.2589 473.389 35.8156 473.391 37.4393V104.389C473.392 104.656 473.375 104.924 473.338 105.189C473.142 106.661 472.42 108.012 471.306 108.991C470.192 109.97 468.761 110.511 467.279 110.513H406.705C405.085 110.511 403.532 109.865 402.386 108.717C401.24 107.569 400.595 106.012 400.594 104.389ZM406.705 34.6555C405.969 34.6564 405.263 34.9499 404.742 35.4718C404.221 35.9937 403.928 36.7012 403.927 37.4393V104.389C403.928 105.127 404.221 105.834 404.742 106.356C405.263 106.878 405.969 107.171 406.705 107.172H467.279C467.956 107.17 468.609 106.922 469.117 106.472C469.624 106.023 469.951 105.404 470.036 104.731C470.051 104.617 470.058 104.503 470.057 104.389V37.4393C470.056 36.7012 469.763 35.9937 469.242 35.4718C468.722 34.9499 468.016 34.6564 467.279 34.6555H406.705Z" fill="#95A0B6"/>
<path d="M301.896 84.2898C301.897 83.1089 302.366 81.9768 303.199 81.1418C304.033 80.3068 305.162 79.8371 306.341 79.8358H379.683C380.861 79.8358 381.992 80.305 382.826 81.1403C383.659 81.9756 384.128 83.1085 384.128 84.2898C384.128 85.471 383.659 86.6039 382.826 87.4392C381.992 88.2745 380.861 88.7438 379.683 88.7438H306.341C305.162 88.7424 304.033 88.2727 303.199 87.4377C302.366 86.6027 301.897 85.4706 301.896 84.2898Z" fill="#95A0B6"/>
<path d="M301.896 65.3603C301.897 64.1794 302.366 63.0473 303.199 62.2123C304.033 61.3773 305.162 60.9076 306.341 60.9062H346.345C347.524 60.9062 348.655 61.3755 349.489 62.2108C350.322 63.0461 350.79 64.179 350.79 65.3603C350.79 66.5415 350.322 67.6744 349.489 68.5097C348.655 69.345 347.524 69.8143 346.345 69.8143H306.341C305.162 69.8129 304.033 69.3432 303.199 68.5082C302.366 67.6732 301.897 66.5411 301.896 65.3603Z" fill="#95A0B6"/>
<path d="M422.023 57.3319C425.918 65.0059 428.988 72.9209 437.58 72.9209C441.706 72.9209 445.663 71.2785 448.581 68.355C451.498 65.4315 453.137 61.4663 453.137 57.3319C453.137 53.1974 451.498 49.2323 448.581 46.3088C445.663 43.3853 441.706 41.7429 437.58 41.7429C428.848 41.6333 414.772 43.0482 422.023 57.3319Z" fill="#273140"/>
<path d="M436.814 73.2245C444.351 73.2245 450.461 67.1023 450.461 59.5501C450.461 51.998 444.351 45.8758 436.814 45.8758C429.278 45.8758 423.168 51.998 423.168 59.5501C423.168 67.1023 429.278 73.2245 436.814 73.2245Z" fill="#A0616A"/>
<path d="M455.445 84.4757C454.566 83.5154 453.609 82.629 452.584 81.8256C448.104 78.3076 442.49 76.5637 436.81 76.9262C436.582 76.9373 436.355 76.954 436.127 76.9763C432.837 77.2397 429.641 78.2022 426.752 79.7996C423.863 81.397 421.346 83.5927 419.369 86.2406C417.362 88.9289 415.951 92.0158 415.23 95.2948C414.51 98.5737 414.496 101.969 415.191 105.254C415.341 105.95 415.474 106.651 415.602 107.353H460.84L461.363 103.845C461.885 100.379 461.624 96.8389 460.6 93.4867C459.576 90.1345 457.815 87.0552 455.445 84.4757Z" fill="#485467"/>
<path d="M462.374 88.1336C462.055 86.304 461.106 84.6446 459.692 83.4442C458.277 82.2437 456.488 81.5784 454.634 81.5639C454.562 81.5639 454.484 81.5695 454.412 81.5695C453.795 81.5836 453.181 81.6696 452.584 81.8256C451.58 82.093 450.638 82.5565 449.814 83.1895C448.989 83.8224 448.297 84.6124 447.777 85.5141C447.258 86.4158 446.922 87.4113 446.787 88.4437C446.653 89.476 446.723 90.5248 446.995 91.5297L451.267 107.353H465.647L462.374 88.1336Z" fill="#485467"/>
<path d="M430.732 83.9858C430.189 82.9192 429.412 81.9901 428.459 81.2688C427.784 80.7581 427.029 80.363 426.226 80.0996C425.897 79.9871 425.561 79.8978 425.22 79.8324C423.361 79.4801 421.439 79.8048 419.798 80.7482C418.158 81.6915 416.908 83.1912 416.274 84.9768L408.451 107.353H423.297L430.87 90.895C431.375 89.8092 431.625 88.6219 431.601 87.4243C431.577 86.2266 431.28 85.0504 430.732 83.9858Z" fill="#485467"/>
<path d="M422.333 51.8221C425.452 53.9758 429.153 55.122 432.94 55.1068C431.589 56.0455 430.051 56.6795 428.432 56.9653C433.468 58.0476 438.672 58.0769 443.719 57.0514C444.841 56.8711 445.924 56.4985 446.92 55.95C447.416 55.6723 447.848 55.2931 448.189 54.837C448.529 54.381 448.77 53.8582 448.895 53.3028C449.23 51.3828 447.737 49.6385 446.186 48.4629C443.81 46.6905 441.071 45.4693 438.167 44.8878C435.263 44.3062 432.266 44.3788 429.393 45.1003C427.517 45.5862 425.637 46.4072 424.419 47.9167C423.201 49.4263 422.84 51.7536 424 53.308L422.333 51.8221Z" fill="#273140"/>
<path d="M350.578 222H148.422C145.697 221.997 143.084 220.911 141.157 218.98C139.23 217.049 138.146 214.431 138.143 211.7V88.0158C138.146 85.9363 138.971 83.9426 140.439 82.4721C141.906 81.0017 143.896 80.1745 145.971 80.1721H352.913C355.019 80.1745 357.038 81.0139 358.527 82.5062C360.017 83.9985 360.854 86.0218 360.857 88.1322V211.7C360.854 214.431 359.77 217.049 357.843 218.98C355.916 220.911 353.303 221.997 350.578 222Z" fill="white"/>
<path d="M350.578 222H148.422C145.697 221.997 143.084 220.911 141.157 218.98C139.23 217.049 138.146 214.431 138.143 211.7V88.0158C138.146 85.9363 138.971 83.9426 140.439 82.4721C141.906 81.0017 143.896 80.1745 145.971 80.1721H352.913C355.019 80.1745 357.038 81.0139 358.527 82.5062C360.017 83.9985 360.854 86.0218 360.857 88.1322V211.7C360.854 214.431 359.77 217.049 357.843 218.98C355.916 220.911 353.303 221.997 350.578 222ZM145.971 82.3991C144.485 82.4009 143.06 82.9932 142.009 84.0462C140.959 85.0991 140.368 86.5267 140.366 88.0158V211.7C140.368 213.84 141.218 215.892 142.728 217.406C144.239 218.919 146.286 219.771 148.422 219.773H350.578C352.714 219.771 354.761 218.919 356.272 217.406C357.782 215.892 358.632 213.84 358.634 211.7V88.1322C358.632 86.6122 358.029 85.155 356.957 84.0802C355.884 83.0054 354.43 82.4008 352.913 82.3991H145.971Z" fill="#485467"/>
<path d="M230.438 190.685H169.864C168.382 190.683 166.952 190.142 165.837 189.163C164.723 188.184 164.001 186.833 163.805 185.361C163.769 185.096 163.751 184.828 163.753 184.561V117.611C163.755 115.988 164.399 114.431 165.545 113.283C166.691 112.135 168.244 111.489 169.864 111.487H230.438C232.058 111.489 233.612 112.135 234.758 113.283C235.903 114.431 236.548 115.988 236.55 117.611V184.561C236.548 186.184 235.903 187.741 234.758 188.889C233.612 190.037 232.058 190.683 230.438 190.685ZM169.864 114.828C169.128 114.828 168.422 115.122 167.901 115.644C167.38 116.166 167.087 116.873 167.086 117.611V184.561C167.085 184.675 167.092 184.79 167.108 184.903C167.193 185.576 167.519 186.195 168.027 186.644C168.534 187.094 169.187 187.343 169.864 187.344H230.438C231.175 187.344 231.881 187.05 232.401 186.528C232.922 186.006 233.215 185.299 233.216 184.561V117.611C233.215 116.873 232.922 116.166 232.401 115.644C231.881 115.122 231.175 114.828 230.438 114.828H169.864Z" fill="#95A0B6"/>
<path d="M199.272 123.727C195.328 121.888 190.487 121.286 186.475 122.994C182.462 124.702 179.727 129.08 181.024 132.955C181.613 134.711 182.952 136.439 182.43 138.213C182.029 139.579 180.627 140.48 179.251 141.122C177.875 141.763 176.369 142.302 175.374 143.383C174.378 144.464 174.171 146.325 175.414 147.164C175.824 147.44 176.336 147.571 176.733 147.862C177.071 148.138 177.316 148.513 177.432 148.934C177.548 149.355 177.53 149.802 177.38 150.213C177.049 151.039 176.502 151.76 175.796 152.301C174.384 153.521 172.519 154.917 172.957 156.649C173.12 157.111 173.391 157.528 173.749 157.863C174.106 158.198 174.539 158.442 175.011 158.574C175.991 158.857 177.007 158.991 178.026 158.973L219.679 160.287C221.054 160.391 222.437 160.314 223.792 160.057C224.45 159.937 225.077 159.682 225.633 159.308C226.188 158.933 226.661 158.449 227.021 157.883C227.819 156.404 227.295 154.581 226.31 153.2C225.325 151.818 223.931 150.729 222.779 149.46C221.627 148.192 220.685 146.608 220.888 144.969C221.05 143.656 221.914 142.522 222.534 141.329C223.154 140.137 223.515 138.647 222.711 137.549C221.58 136.004 218.863 136.143 217.576 134.703C216.605 133.616 216.792 132.051 216.696 130.649C216.464 127.277 214.134 124.092 210.817 122.614C209.131 121.888 207.296 121.575 205.465 121.7C203.634 121.825 201.859 122.385 200.286 123.332L199.272 123.727Z" fill="#273140"/>
<path d="M200.813 159.964C208.35 159.964 214.459 153.842 214.459 146.29C214.459 138.738 208.35 132.615 200.813 132.615C193.276 132.615 187.166 138.738 187.166 146.29C187.166 153.842 193.276 159.964 200.813 159.964Z" fill="#A0616A"/>
<path d="M218.729 177.623C218.716 175.227 218.053 172.878 216.813 170.829C215.572 168.78 213.799 167.107 211.684 165.987C211.512 165.893 211.334 165.809 211.156 165.726C209.621 164.996 207.958 164.573 206.261 164.479L193.271 163.749C191.436 163.644 189.6 163.927 187.882 164.579C187.463 164.735 187.053 164.913 186.654 165.113C185.398 165.733 184.25 166.551 183.253 167.535C181.94 168.834 180.913 170.393 180.238 172.113C179.562 173.834 179.253 175.676 179.33 177.523L179.564 183.041L181.198 187.289H217.518C217.969 186.742 218.36 186.148 218.685 185.518C219.301 184.295 219.625 182.946 219.633 181.576C219.641 180.206 219.331 178.853 218.729 177.623Z" fill="#485467"/>
<path d="M217.84 170.308C217.248 169.019 216.319 167.915 215.151 167.112C214.309 166.534 213.364 166.122 212.367 165.898C211.969 165.81 211.564 165.753 211.156 165.726C210.354 165.671 209.548 165.74 208.767 165.932C207.601 166.222 206.516 166.775 205.594 167.548C204.672 168.32 203.937 169.293 203.446 170.391C202.954 171.49 202.718 172.687 202.755 173.89C202.792 175.094 203.102 176.273 203.661 177.34L208.656 186.815L208.906 187.289H225.68L217.84 170.308Z" fill="#485467"/>
<path d="M190.387 165.369C189.601 164.969 188.755 164.702 187.882 164.579C187.232 164.486 186.573 164.477 185.92 164.551C184.26 164.739 182.702 165.449 181.469 166.577C180.235 167.706 179.39 169.197 179.053 170.837L175.669 187.289H188.904L191.376 186.275L194.455 174.439C194.902 172.689 194.744 170.839 194.005 169.191C193.266 167.543 191.99 166.196 190.387 165.369Z" fill="#485467"/>
<path d="M186.852 144.346C191.162 143.999 194.74 139.685 194.292 135.376C194.241 137.152 194.844 138.885 195.985 140.244C197.127 141.604 198.727 142.496 200.482 142.75C202.459 142.969 204.626 142.369 206.346 143.369C208.252 144.475 208.862 147.163 210.847 148.119C212.766 149.043 215.202 147.783 216.15 145.874C217.098 143.964 216.865 141.67 216.237 139.633C215.341 136.727 213.71 134.103 211.503 132.015C209.295 129.928 206.586 128.449 203.639 127.722C200.692 126.995 197.607 127.044 194.685 127.865C191.762 128.687 189.102 130.252 186.962 132.409C185.15 134.235 183.711 136.563 183.478 139.128C183.244 141.692 184.432 144.475 186.73 145.628L186.852 144.346Z" fill="#273140"/>
<path d="M330.802 168.916H257.461C256.282 168.916 255.151 168.447 254.318 167.611C253.484 166.776 253.016 165.643 253.016 164.462C253.016 163.281 253.484 162.148 254.318 161.312C255.151 160.477 256.282 160.008 257.461 160.008H330.802C331.981 160.008 333.112 160.477 333.945 161.312C334.779 162.148 335.247 163.281 335.247 164.462C335.247 165.643 334.779 166.776 333.945 167.611C333.112 168.447 331.981 168.916 330.802 168.916Z" fill="#95A0B6"/>
<path d="M297.465 149.986H257.461C256.282 149.986 255.151 149.517 254.318 148.682C253.484 147.847 253.016 146.714 253.016 145.532C253.016 144.351 253.484 143.218 254.318 142.383C255.151 141.548 256.282 141.078 257.461 141.078H297.465C298.644 141.078 299.775 141.548 300.608 142.383C301.442 143.218 301.91 144.351 301.91 145.532C301.91 146.714 301.442 147.847 300.608 148.682C299.775 149.517 298.644 149.986 297.465 149.986Z" fill="#A587FA"/>
<path d="M318.93 182.514C315.048 182.521 311.327 184.072 308.584 186.825C305.842 189.578 304.301 193.31 304.301 197.2C304.301 201.09 305.842 204.821 308.584 207.575C311.327 210.328 315.048 211.879 318.93 211.886H318.93C322.813 211.879 326.534 210.328 329.276 207.575C332.019 204.821 333.559 201.09 333.559 197.2C333.559 193.31 332.019 189.578 329.276 186.825C326.534 184.072 322.813 182.521 318.93 182.514Z" fill="#A587FA"/>
<path d="M317.54 203.299C317.154 203.3 316.778 203.175 316.47 202.943L316.451 202.928L312.42 199.839C312.044 199.549 311.798 199.121 311.736 198.65C311.674 198.178 311.802 197.702 312.09 197.324C312.379 196.947 312.806 196.7 313.276 196.637C313.747 196.574 314.223 196.701 314.6 196.99L317.21 198.996L323.379 190.932C323.522 190.745 323.701 190.588 323.904 190.47C324.108 190.352 324.332 190.276 324.566 190.245C324.799 190.214 325.035 190.229 325.263 190.29C325.49 190.351 325.703 190.456 325.889 190.599L325.89 190.6L325.852 190.653L325.891 190.6C326.267 190.89 326.514 191.318 326.576 191.789C326.638 192.261 326.511 192.738 326.222 193.116L318.966 202.597C318.798 202.815 318.582 202.992 318.335 203.114C318.088 203.235 317.817 203.298 317.541 203.297L317.54 203.299Z" fill="white"/>
</g>
<defs>
<clipPath id="clip0_237_545">
<rect width="499" height="222" fill="white"/>
</clipPath>
</defs>
</svg>
