<?xml version="1.0" encoding="iso-8859-1"?>
<!-- Generator: Adobe Illustrator 19.0.0, SVG Export Plug-In . SVG Version: 6.00 Build 0)  -->
<svg version="1.1" id="Layer_1" xmlns="http://www.w3.org/2000/svg" xmlns:xlink="http://www.w3.org/1999/xlink" x="0px" y="0px"
	 viewBox="0 0 512.001 512.001" style="enable-background:new 0 0 512.001 512.001;" xml:space="preserve">
<polygon style="fill:#D99C16;" points="256.005,226.253 362.599,129.879 469.196,226.251 469.196,339.956 255.996,339.956 
	42.803,339.956 42.803,226.251 149.401,129.879 255.996,226.253 "/>
<polygon style="fill:#FFB819;" points="362.595,226.253 256.001,129.879 149.403,226.251 42.808,129.879 42.808,226.253 
	42.803,226.253 42.803,339.956 469.192,339.956 469.192,226.253 469.193,226.253 469.193,129.879 "/>
<rect x="42.802" y="339.952" style="fill:#65513C;" width="426.393" height="42.167"/>
<ellipse style="fill:#D85C72;" cx="255.993" cy="256.886" rx="34.64" ry="44.664"/>
<circle style="fill:#DE6E7F;" cx="270.816" cy="239.188" r="8.789"/>
<path style="fill:#D85C72;" d="M68.428,256.891c0-24.669-6.49-44.667-25.62-44.667s-34.64,19.998-34.64,44.667
	c0,24.668,15.509,44.665,34.64,44.665C61.938,301.556,68.428,281.559,68.428,256.891z"/>
<circle style="fill:#DE6E7F;" cx="50.081" cy="239.188" r="8.789"/>
<path style="fill:#D85C72;" d="M443.57,256.891c0-24.669,6.492-44.667,25.622-44.667s34.64,19.998,34.64,44.667
	c0,24.668-15.509,44.665-34.64,44.665C450.062,301.556,443.57,281.559,443.57,256.891z"/>
<circle style="fill:#DE6E7F;" cx="483.669" cy="239.188" r="8.789"/>
<path style="fill:#022A3A;" d="M477.361,205.032V129.88c0-3.229-1.903-6.155-4.853-7.465c-2.953-1.311-6.398-0.759-8.792,1.406
	l-47.818,43.232l-47.82-43.232c-3.109-2.812-7.845-2.812-10.955,0l-47.823,43.235l-47.819-43.235c-3.112-2.812-7.846-2.812-10.956,0
	l-47.822,43.234l-47.822-43.234c-3.109-2.812-7.845-2.812-10.955,0l-47.819,43.232L48.285,123.82
	c-2.394-2.165-5.839-2.718-8.792-1.406c-2.95,1.31-4.853,4.237-4.853,7.465v75.152C14.93,209.752,0,231.205,0,256.891
	c0,25.682,14.927,47.133,34.634,51.856v73.376c0,4.511,3.657,8.168,8.168,8.168h426.389c4.512,0,8.168-3.657,8.168-8.168v-73.375
	c19.711-4.719,34.641-26.172,34.641-51.858C512,231.205,497.07,209.752,477.361,205.032z M362.599,140.89l41.119,37.172
	l-41.123,37.179l-41.117-37.175L362.599,140.89z M149.401,140.89l41.121,37.174l-41.119,37.174l-41.12-37.175L149.401,140.89z
	 M16.336,256.891c0-20.125,11.874-36.499,26.472-36.499c5.827,0,9.733,2.636,12.668,8.547c3.13,6.303,4.784,15.968,4.784,27.952
	c0,11.982-1.654,21.648-4.784,27.951c-2.935,5.911-6.842,8.547-12.668,8.547C28.211,293.387,16.336,277.015,16.336,256.891z
	 M461.024,373.955H50.971v-25.83h410.053V373.955z M461.024,331.788H50.971v-23.1c11.927-3.152,25.625-14.817,25.625-51.798
	c0-36.976-13.694-48.645-25.62-51.798v-56.817l92.949,84.034c3.109,2.812,7.845,2.812,10.954,0l101.121-91.419l101.116,91.421
	c1.556,1.406,3.517,2.109,5.478,2.109c1.961,0,3.923-0.702,5.477-2.109l92.953-84.037v56.817
	c-11.927,3.153-25.622,14.822-25.622,51.798c0,36.975,13.694,48.642,25.621,51.797L461.024,331.788L461.024,331.788z
	 M469.193,293.387c-5.827,0-9.734-2.636-12.669-8.547c-3.13-6.303-4.786-15.967-4.786-27.95s1.655-21.648,4.786-27.952
	c2.935-5.912,6.843-8.547,12.669-8.547c14.596,0,26.472,16.374,26.472,36.499C495.664,277.015,483.789,293.387,469.193,293.387z
	 M255.997,204.055c-23.604,0-42.808,23.702-42.808,52.835c0,29.132,19.204,52.833,42.808,52.833s42.808-23.701,42.808-52.833
	C298.804,227.757,279.601,204.055,255.997,204.055z M255.997,293.387c-14.596,0-26.472-16.372-26.472-36.497
	c0-20.125,11.874-36.499,26.472-36.499c14.596,0,26.472,16.374,26.472,36.499C282.468,277.015,270.593,293.387,255.997,293.387z"/>
<g>
</g>
<g>
</g>
<g>
</g>
<g>
</g>
<g>
</g>
<g>
</g>
<g>
</g>
<g>
</g>
<g>
</g>
<g>
</g>
<g>
</g>
<g>
</g>
<g>
</g>
<g>
</g>
<g>
</g>
</svg>
