<svg width="504" height="330" viewBox="0 0 504 330" fill="none" xmlns="http://www.w3.org/2000/svg">
<path d="M249.409 56.1004C257.853 56.1004 264.698 49.2548 264.698 40.8103C264.698 32.3658 257.853 25.5202 249.409 25.5202C240.965 25.5202 234.119 32.3658 234.119 40.8103C234.119 49.2548 240.965 56.1004 249.409 56.1004Z" fill="#F17171"/>
<path d="M283.628 33.5702C283.196 32.1563 282.361 30.8993 281.225 29.9541C280.088 29.0089 278.7 28.4166 277.232 28.2503C277.197 28.2474 277.163 28.2474 277.128 28.2503C277.087 28.2374 277.045 28.2278 277.002 28.2217C271.883 27.5574 266.191 29.1722 262.361 32.6883C260.938 33.973 259.801 35.5413 259.022 37.2924C258.312 36.3223 257.376 35.54 256.295 35.0132C255.215 34.4863 254.022 34.2308 252.821 34.2688C251.271 34.3712 249.791 34.9492 248.581 35.9237C247.372 36.8983 246.493 38.2221 246.064 39.7147C246.016 39.897 246.029 40.0897 246.101 40.2641C246.172 40.4385 246.297 40.5852 246.459 40.6824C246.919 41.0763 247.467 41.3551 248.056 41.4956C249.322 41.7647 250.599 42.011 251.876 42.2343C254.372 42.6695 256.882 43.0226 259.406 43.2937C261.072 43.4712 262.742 43.6125 264.416 43.7175C267.875 43.9351 271.351 43.9866 274.815 43.8778C276.533 43.8205 278.182 43.7633 279.751 43.0074C280.894 42.4451 281.871 41.5944 282.586 40.5393C283.258 39.5244 283.7 38.3744 283.88 37.1703C284.06 35.9663 283.974 34.7374 283.628 33.5702Z" fill="#F5F9FF"/>
<path d="M252.173 55.8461C252.144 55.2054 252.037 54.5708 251.853 53.9564C251.42 52.5426 250.583 51.2861 249.446 50.341C248.308 49.396 246.92 48.8036 245.451 48.6365C245.418 48.6336 245.386 48.6336 245.354 48.6365C245.31 48.6242 245.266 48.6147 245.222 48.6079C242.389 48.2608 239.513 48.5563 236.81 49.4726C232.653 50.8641 229.005 53.67 227.247 57.6786C226.536 56.7079 225.599 55.9253 224.518 55.3984C223.436 54.8716 222.242 54.6164 221.04 54.655C219.49 54.7575 218.01 55.3354 216.801 56.3099C215.592 57.2845 214.712 58.6083 214.283 60.1009C214.238 60.2833 214.253 60.475 214.324 60.6488C214.395 60.8226 214.519 60.9696 214.678 61.0687C215.139 61.4615 215.687 61.7401 216.276 61.8818C217.547 62.151 218.818 62.3972 220.101 62.6205C222.597 63.0557 225.106 63.4089 227.625 63.6799C232.744 64.2295 237.894 64.4246 243.04 64.264C244.752 64.2067 246.407 64.1495 247.976 63.3936C249.118 62.8311 250.093 61.9804 250.805 60.9255C251.809 59.4296 252.29 57.6438 252.173 55.8461Z" fill="#F5F9FF"/>
<path d="M451.303 241.377C451.523 251.802 450.084 262.196 447.041 272.17C446.934 272.532 446.807 272.894 446.679 273.257H383.945C384.842 268.84 386.265 264.548 388.186 260.471C393.406 249.389 401.93 239.907 410.347 230.488C421.939 217.51 433.254 204.639 435.044 187.761C439.639 194.766 443.306 202.338 445.954 210.286C442.712 211.487 439.737 213.311 437.196 215.656C436.493 216.317 435.747 217.275 436.11 218.192C436.45 218.959 437.388 219.215 438.219 219.385C440.222 219.769 442.225 220.152 444.228 220.515C445.805 220.834 447.403 221.133 449.001 221.431C450.406 227.99 451.177 234.67 451.303 241.377Z" fill="#F5F9FF"/>
<path d="M504 234.473C493.942 240.588 487.549 250.05 482.329 260.641C477.786 261.677 473.592 263.88 470.161 267.034C469.437 267.695 468.691 268.654 469.075 269.57C469.394 270.337 470.353 270.593 471.184 270.763C473.166 271.147 475.19 271.53 477.172 271.893C476.98 272.34 476.788 272.809 476.597 273.257H410.113C413.131 269.186 416.473 265.366 420.106 261.834C420.895 261.046 421.705 260.3 422.536 259.533C431.011 251.873 440.742 245.732 451.303 241.377C467.94 234.422 486.133 232.038 504 234.473Z" fill="#F5F9FF"/>
<path d="M421.193 273.257H361.997C361.673 268.516 361.702 263.758 362.082 259.022C364.447 229.763 380.365 201.89 404.38 185.012C401.312 195.944 402.889 206.812 406.085 217.723C405.638 217.872 405.19 218 404.785 218.17C401.543 219.371 398.568 221.196 396.027 223.541C395.324 224.201 394.578 225.16 394.941 226.076C395.26 226.844 396.219 227.099 397.05 227.27C399.053 227.653 401.056 228.037 403.038 228.399C404.636 228.719 406.234 229.017 407.832 229.337C408.578 229.465 409.324 229.614 410.07 229.763C410.176 230.019 410.24 230.253 410.347 230.488C414.097 240.823 418.189 251.243 420.106 261.834C420.581 264.492 420.908 267.174 421.087 269.868C421.151 270.998 421.193 272.127 421.193 273.257Z" fill="#F5F9FF"/>
<path d="M98.567 241.377C98.7867 251.802 97.3481 262.196 94.3052 272.17C94.1986 272.532 94.0707 272.894 93.9429 273.257H31.2091C32.1059 268.84 33.5296 264.548 35.4497 260.471C40.6703 249.389 49.1939 239.907 57.611 230.488C69.2031 217.51 80.5182 204.639 82.3082 187.761C86.9031 194.766 90.5704 202.338 93.2184 210.286C89.9765 211.487 87.0011 213.311 84.4604 215.656C83.7572 216.317 83.0113 217.275 83.3737 218.192C83.7146 218.959 84.6522 219.215 85.4832 219.385C87.4863 219.769 89.4893 220.152 91.4924 220.515C93.0692 220.834 94.6674 221.133 96.2656 221.431C97.6703 227.99 98.441 234.67 98.567 241.377Z" fill="#F5F9FF"/>
<path d="M151.264 234.473C141.206 240.588 134.814 250.05 129.593 260.641C125.05 261.677 120.856 263.88 117.426 267.034C116.701 267.695 115.955 268.654 116.339 269.57C116.658 270.337 117.617 270.593 118.448 270.763C120.43 271.147 122.454 271.53 124.436 271.893C124.244 272.34 124.053 272.809 123.861 273.257H57.3767C60.3948 269.186 63.737 265.366 67.3706 261.834C68.1591 261.046 68.9688 260.3 69.7999 259.533C78.275 251.873 88.0064 245.732 98.5671 241.377C115.204 234.422 133.397 232.038 151.264 234.473Z" fill="#F5F9FF"/>
<path d="M68.4574 273.257H9.2609C8.93764 268.516 8.96616 263.758 9.34622 259.022C11.7115 229.763 27.6293 201.89 51.6446 185.012C48.5761 195.944 50.1529 206.812 53.3493 217.723C52.9018 217.872 52.4543 218 52.0494 218.17C48.8075 219.371 45.8322 221.196 43.2915 223.541C42.5882 224.201 41.8425 225.16 42.2047 226.076C42.5242 226.844 43.4832 227.099 44.3142 227.27C46.3173 227.653 48.3203 228.037 50.3021 228.399C51.9002 228.719 53.4984 229.017 55.0966 229.337C55.8424 229.465 56.5883 229.614 57.334 229.763C57.4405 230.019 57.5045 230.253 57.611 230.488C61.3614 240.823 65.4527 251.243 67.3706 261.834C67.8453 264.492 68.1726 267.174 68.3509 269.868C68.4148 270.998 68.4574 272.127 68.4574 273.257Z" fill="#F5F9FF"/>
<path d="M288.837 248.402L341.73 253.098L342.297 253.15V27.4469C342.108 27.3152 341.919 27.1835 341.73 27.0518C330.707 19.341 318.782 13.0063 306.222 8.18884L303.519 45.4681L303.273 48.8811L300.598 85.8511L299.774 97.2239L288.934 247.085L288.837 248.402Z" fill="#F5F9FF"/>
<path d="M158.032 23.2437C157.655 23.4843 157.277 23.7248 156.899 23.9767V253.15L158.032 253.047L210.353 248.402L210.256 247.085L199.416 97.2239L198.591 85.8511L195.917 48.8811L195.671 45.4681L192.836 6.3736C180.613 10.6108 168.931 16.2732 158.032 23.2437Z" fill="#F5F9FF"/>
<path d="M156.899 23.9767C156.137 24.4692 155.376 24.9731 154.625 25.4828V256.276C154.625 262.043 158.044 266.876 162.613 268.107C163.36 268.309 164.13 268.411 164.904 268.411H334.858C335.63 268.412 336.399 268.31 337.143 268.107C338.842 267.636 340.381 266.714 341.598 265.439C343.919 262.958 345.188 259.673 345.137 256.276V29.497C344.198 28.8041 343.253 28.1169 342.297 27.4469C342.108 27.3152 341.919 27.1835 341.73 27.0518V256.276C341.731 257.019 341.643 257.759 341.467 258.481C340.659 261.888 337.996 264.385 334.858 264.385H164.904C161.113 264.385 158.032 260.749 158.032 256.276V23.2437C157.655 23.4842 157.277 23.7247 156.899 23.9767Z" fill="#F5F9FF"/>
<path d="M343.433 45.4704H156.328V48.8828H343.433V45.4704Z" fill="#F5F9FF"/>
<path d="M286.128 1.94126C284.995 1.66066 283.861 1.39724 282.715 1.151V93.8109H286.128V1.94126Z" fill="#F5F9FF"/>
<path d="M217.047 0C215.908 0.211879 214.768 0.429487 213.634 0.664271V93.8109H217.047V0Z" fill="#F5F9FF"/>
<path d="M119.644 262.438C119.643 264.396 120.018 266.336 120.749 268.153C121.03 268.857 121.365 269.539 121.751 270.192C122.25 271.043 122.829 271.844 123.481 272.585C124.919 274.225 126.691 275.538 128.678 276.438C130.665 277.337 132.821 277.803 135.002 277.802H359.075C363.148 277.802 367.054 276.184 369.934 273.304C372.815 270.423 374.433 266.517 374.433 262.444C374.433 258.37 372.815 254.464 369.934 251.584C367.054 248.703 363.148 247.085 359.075 247.085H135.002C130.931 247.089 127.028 248.708 124.149 251.586C121.269 254.464 119.649 258.367 119.644 262.438Z" fill="#F5F9FF"/>
<path d="M156.328 97.2252L342.296 97.2252V85.8505L156.328 85.8505V97.2252Z" fill="#F5F9FF"/>
<path d="M257.274 88.6942H241.35C241.35 87.0349 242.009 85.4437 243.182 84.2705C244.355 83.0972 245.946 82.4381 247.606 82.4381H251.018C251.839 82.4381 252.653 82.5999 253.412 82.9143C254.171 83.2287 254.86 83.6895 255.441 84.2705C256.022 84.8514 256.483 85.541 256.797 86.3001C257.112 87.0591 257.274 87.8726 257.274 88.6942H257.274Z" fill="#F5F9FF"/>
<path d="M0 271.211C4.97452 277.105 10.355 282.645 16.1022 287.789H477.968C483.716 282.645 489.096 277.105 494.071 271.211H0Z" fill="#485467"/>
<path d="M227.154 215.773V274.504H268.297V215.773C268.297 215.351 268.163 214.939 267.912 214.599C267.662 214.259 267.309 214.008 266.905 213.883C266.715 213.82 266.516 213.79 266.316 213.792H229.141C228.88 213.791 228.622 213.842 228.381 213.941C228.14 214.041 227.921 214.187 227.737 214.371C227.552 214.555 227.406 214.773 227.306 215.014C227.206 215.254 227.154 215.512 227.154 215.773ZM243.21 235.953C243.221 234.795 243.689 233.689 244.511 232.874C245.334 232.059 246.444 231.602 247.602 231.602C248.76 231.602 249.871 232.059 250.693 232.874C251.516 233.689 251.983 234.795 251.994 235.953V242.768C251.988 243.929 251.523 245.04 250.7 245.859C249.877 246.678 248.763 247.137 247.602 247.137C246.441 247.137 245.327 246.678 244.504 245.859C243.681 245.04 243.216 243.929 243.21 242.768V235.953Z" fill="#273140"/>
<path d="M227.028 272.625V278.289C227.029 278.582 227.145 278.863 227.352 279.071C227.559 279.279 227.84 279.397 228.133 279.4H267.318C267.611 279.398 267.892 279.281 268.099 279.072C268.307 278.864 268.423 278.582 268.423 278.289V272.625H227.028Z" fill="#485467"/>
<path d="M162.43 127.288V234.521C162.431 235.888 162.975 237.198 163.941 238.165C164.907 239.131 166.217 239.674 167.584 239.675H326.487C327.853 239.674 329.163 239.131 330.13 238.165C331.096 237.198 331.639 235.888 331.64 234.521V127.288C331.637 125.922 331.093 124.614 330.127 123.649C329.161 122.684 327.852 122.141 326.487 122.14H167.584C166.218 122.141 164.91 122.684 163.944 123.649C162.978 124.614 162.433 125.922 162.43 127.288Z" fill="#485467"/>
<path d="M166.158 128.622V233.199C166.159 233.929 166.45 234.629 166.966 235.145C167.482 235.661 168.182 235.952 168.912 235.953H325.164C325.894 235.952 326.594 235.661 327.11 235.145C327.626 234.629 327.917 233.929 327.918 233.199V128.622C327.918 127.891 327.628 127.19 327.112 126.672C326.595 126.155 325.895 125.863 325.164 125.862H168.912C168.181 125.863 167.481 126.155 166.964 126.672C166.448 127.19 166.158 127.891 166.158 128.622Z" fill="#7865FF"/>
<path d="M198.019 280.734C198.178 280.933 198.38 281.094 198.61 281.204C198.84 281.314 199.092 281.371 199.347 281.37H292.307C292.561 281.369 292.812 281.312 293.042 281.203C293.271 281.093 293.473 280.934 293.633 280.737C293.793 280.539 293.908 280.308 293.967 280.061C294.027 279.814 294.031 279.557 293.979 279.308L292.536 272.454C292.476 272.174 292.347 271.914 292.161 271.697C291.975 271.48 291.738 271.313 291.471 271.211C291.277 271.135 291.072 271.096 290.864 271.096H200.785C200.577 271.096 200.371 271.135 200.178 271.211C199.91 271.313 199.673 271.48 199.487 271.697C199.301 271.914 199.172 272.174 199.112 272.454L197.669 279.308C197.618 279.557 197.623 279.814 197.683 280.06C197.744 280.307 197.858 280.537 198.019 280.734Z" fill="#273140"/>
<path d="M287.62 274.049H289.924C290.078 274.049 290.204 273.924 290.204 273.769V272.61C290.204 272.456 290.078 272.331 289.924 272.331H287.62C287.466 272.331 287.34 272.456 287.34 272.61V273.769C287.34 273.924 287.466 274.049 287.62 274.049Z" fill="#485467"/>
<path d="M281.894 274.049H284.198C284.352 274.049 284.477 273.924 284.477 273.769V272.61C284.477 272.456 284.352 272.331 284.198 272.331H281.894C281.739 272.331 281.614 272.456 281.614 272.61V273.769C281.614 273.924 281.739 274.049 281.894 274.049Z" fill="#485467"/>
<path d="M276.168 274.049H278.472C278.626 274.049 278.751 273.924 278.751 273.769V272.61C278.751 272.456 278.626 272.331 278.472 272.331H276.168C276.013 272.331 275.888 272.456 275.888 272.61V273.769C275.888 273.924 276.013 274.049 276.168 274.049Z" fill="#485467"/>
<path d="M270.441 274.049H272.745C272.9 274.049 273.025 273.924 273.025 273.769V272.61C273.025 272.456 272.9 272.331 272.745 272.331H270.441C270.287 272.331 270.162 272.456 270.162 272.61V273.769C270.162 273.924 270.287 274.049 270.441 274.049Z" fill="#485467"/>
<path d="M264.715 274.049H267.019C267.174 274.049 267.299 273.924 267.299 273.769V272.61C267.299 272.456 267.174 272.331 267.019 272.331H264.715C264.561 272.331 264.436 272.456 264.436 272.61V273.769C264.436 273.924 264.561 274.049 264.715 274.049Z" fill="#485467"/>
<path d="M258.989 274.049H261.293C261.447 274.049 261.573 273.924 261.573 273.769V272.61C261.573 272.456 261.447 272.331 261.293 272.331H258.989C258.835 272.331 258.709 272.456 258.709 272.61V273.769C258.709 273.924 258.835 274.049 258.989 274.049Z" fill="#485467"/>
<path d="M253.263 274.049H255.567C255.721 274.049 255.846 273.924 255.846 273.769V272.61C255.846 272.456 255.721 272.331 255.567 272.331H253.263C253.108 272.331 252.983 272.456 252.983 272.61V273.769C252.983 273.924 253.108 274.049 253.263 274.049Z" fill="#485467"/>
<path d="M247.536 274.049H249.84C249.995 274.049 250.12 273.924 250.12 273.769V272.61C250.12 272.456 249.995 272.331 249.84 272.331H247.536C247.382 272.331 247.257 272.456 247.257 272.61V273.769C247.257 273.924 247.382 274.049 247.536 274.049Z" fill="#485467"/>
<path d="M241.81 274.049H244.114C244.269 274.049 244.394 273.924 244.394 273.769V272.61C244.394 272.456 244.269 272.331 244.114 272.331H241.81C241.656 272.331 241.531 272.456 241.531 272.61V273.769C241.531 273.924 241.656 274.049 241.81 274.049Z" fill="#485467"/>
<path d="M236.084 274.049H238.388C238.542 274.049 238.668 273.924 238.668 273.769V272.61C238.668 272.456 238.542 272.331 238.388 272.331H236.084C235.93 272.331 235.804 272.456 235.804 272.61V273.769C235.804 273.924 235.93 274.049 236.084 274.049Z" fill="#485467"/>
<path d="M230.358 274.049H232.662C232.816 274.049 232.941 273.924 232.941 273.769V272.61C232.941 272.456 232.816 272.331 232.662 272.331H230.358C230.203 272.331 230.078 272.456 230.078 272.61V273.769C230.078 273.924 230.203 274.049 230.358 274.049Z" fill="#485467"/>
<path d="M224.632 274.049H226.936C227.09 274.049 227.215 273.924 227.215 273.769V272.61C227.215 272.456 227.09 272.331 226.936 272.331H224.632C224.477 272.331 224.352 272.456 224.352 272.61V273.769C224.352 273.924 224.477 274.049 224.632 274.049Z" fill="#485467"/>
<path d="M218.905 274.049H221.209C221.364 274.049 221.489 273.924 221.489 273.769V272.61C221.489 272.456 221.364 272.331 221.209 272.331H218.905C218.751 272.331 218.626 272.456 218.626 272.61V273.769C218.626 273.924 218.751 274.049 218.905 274.049Z" fill="#485467"/>
<path d="M213.179 274.049H215.483C215.638 274.049 215.763 273.924 215.763 273.769V272.61C215.763 272.456 215.638 272.331 215.483 272.331H213.179C213.025 272.331 212.9 272.456 212.9 272.61V273.769C212.9 273.924 213.025 274.049 213.179 274.049Z" fill="#485467"/>
<path d="M207.453 274.049H209.757C209.911 274.049 210.036 273.924 210.036 273.769V272.61C210.036 272.456 209.911 272.331 209.757 272.331H207.453C207.298 272.331 207.173 272.456 207.173 272.61V273.769C207.173 273.924 207.298 274.049 207.453 274.049Z" fill="#485467"/>
<path d="M201.727 274.049H204.031C204.185 274.049 204.31 273.924 204.31 273.769V272.61C204.31 272.456 204.185 272.331 204.031 272.331H201.727C201.572 272.331 201.447 272.456 201.447 272.61V273.769C201.447 273.924 201.572 274.049 201.727 274.049Z" fill="#485467"/>
<path d="M287.688 276.912H289.992C290.146 276.912 290.271 276.787 290.271 276.632V275.474C290.271 275.319 290.146 275.194 289.992 275.194H287.688C287.533 275.194 287.408 275.319 287.408 275.474V276.632C287.408 276.787 287.533 276.912 287.688 276.912Z" fill="#485467"/>
<path d="M281.962 276.912H284.266C284.42 276.912 284.545 276.787 284.545 276.632V275.474C284.545 275.319 284.42 275.194 284.266 275.194H281.962C281.807 275.194 281.682 275.319 281.682 275.474V276.632C281.682 276.787 281.807 276.912 281.962 276.912Z" fill="#485467"/>
<path d="M276.235 276.912H278.539C278.694 276.912 278.819 276.787 278.819 276.632V275.474C278.819 275.319 278.694 275.194 278.539 275.194H276.235C276.081 275.194 275.956 275.319 275.956 275.474V276.632C275.956 276.787 276.081 276.912 276.235 276.912Z" fill="#485467"/>
<path d="M270.509 276.912H272.813C272.967 276.912 273.093 276.787 273.093 276.632V275.474C273.093 275.319 272.967 275.194 272.813 275.194H270.509C270.355 275.194 270.23 275.319 270.23 275.474V276.632C270.23 276.787 270.355 276.912 270.509 276.912Z" fill="#485467"/>
<path d="M264.783 276.912H267.087C267.241 276.912 267.366 276.787 267.366 276.632V275.474C267.366 275.319 267.241 275.194 267.087 275.194H264.783C264.628 275.194 264.503 275.319 264.503 275.474V276.632C264.503 276.787 264.628 276.912 264.783 276.912Z" fill="#485467"/>
<path d="M259.057 276.912H261.361C261.515 276.912 261.64 276.787 261.64 276.632V275.474C261.64 275.319 261.515 275.194 261.361 275.194H259.057C258.902 275.194 258.777 275.319 258.777 275.474V276.632C258.777 276.787 258.902 276.912 259.057 276.912Z" fill="#485467"/>
<path d="M253.33 276.912H255.634C255.789 276.912 255.914 276.787 255.914 276.632V275.474C255.914 275.319 255.789 275.194 255.634 275.194H253.33C253.176 275.194 253.051 275.319 253.051 275.474V276.632C253.051 276.787 253.176 276.912 253.33 276.912Z" fill="#485467"/>
<path d="M247.604 276.912H249.908C250.063 276.912 250.188 276.787 250.188 276.632V275.474C250.188 275.319 250.063 275.194 249.908 275.194H247.604C247.45 275.194 247.325 275.319 247.325 275.474V276.632C247.325 276.787 247.45 276.912 247.604 276.912Z" fill="#485467"/>
<path d="M241.878 276.912H244.182C244.336 276.912 244.461 276.787 244.461 276.632V275.474C244.461 275.319 244.336 275.194 244.182 275.194H241.878C241.723 275.194 241.598 275.319 241.598 275.474V276.632C241.598 276.787 241.723 276.912 241.878 276.912Z" fill="#485467"/>
<path d="M236.152 276.912H238.456C238.61 276.912 238.735 276.787 238.735 276.632V275.474C238.735 275.319 238.61 275.194 238.456 275.194H236.152C235.997 275.194 235.872 275.319 235.872 275.474V276.632C235.872 276.787 235.997 276.912 236.152 276.912Z" fill="#485467"/>
<path d="M230.425 276.912H232.729C232.884 276.912 233.009 276.787 233.009 276.632V275.474C233.009 275.319 232.884 275.194 232.729 275.194H230.425C230.271 275.194 230.146 275.319 230.146 275.474V276.632C230.146 276.787 230.271 276.912 230.425 276.912Z" fill="#485467"/>
<path d="M224.699 276.912H227.003C227.158 276.912 227.283 276.787 227.283 276.632V275.474C227.283 275.319 227.158 275.194 227.003 275.194H224.699C224.545 275.194 224.42 275.319 224.42 275.474V276.632C224.42 276.787 224.545 276.912 224.699 276.912Z" fill="#485467"/>
<path d="M218.973 276.912H221.277C221.431 276.912 221.557 276.787 221.557 276.632V275.474C221.557 275.319 221.431 275.194 221.277 275.194H218.973C218.819 275.194 218.693 275.319 218.693 275.474V276.632C218.693 276.787 218.819 276.912 218.973 276.912Z" fill="#485467"/>
<path d="M213.247 276.912H215.551C215.705 276.912 215.83 276.787 215.83 276.632V275.474C215.83 275.319 215.705 275.194 215.551 275.194H213.247C213.092 275.194 212.967 275.319 212.967 275.474V276.632C212.967 276.787 213.092 276.912 213.247 276.912Z" fill="#485467"/>
<path d="M207.521 276.912H209.825C209.979 276.912 210.104 276.787 210.104 276.632V275.474C210.104 275.319 209.979 275.194 209.825 275.194H207.521C207.366 275.194 207.241 275.319 207.241 275.474V276.632C207.241 276.787 207.366 276.912 207.521 276.912Z" fill="#485467"/>
<path d="M201.794 276.912H204.098C204.253 276.912 204.378 276.787 204.378 276.632V275.474C204.378 275.319 204.253 275.194 204.098 275.194H201.794C201.64 275.194 201.515 275.319 201.515 275.474V276.632C201.515 276.787 201.64 276.912 201.794 276.912Z" fill="#485467"/>
<path d="M240.16 280.348H262.506C262.66 280.348 262.785 280.223 262.785 280.068V278.91C262.785 278.755 262.66 278.63 262.506 278.63H240.16C240.006 278.63 239.88 278.755 239.88 278.91V280.068C239.88 280.223 240.006 280.348 240.16 280.348Z" fill="#485467"/>
<path d="M176.764 140.268H322.968C323.12 140.264 323.265 140.202 323.371 140.093C323.477 139.984 323.537 139.838 323.537 139.686C323.537 139.534 323.477 139.388 323.371 139.28C323.265 139.171 323.12 139.108 322.968 139.105H176.764C176.612 139.108 176.467 139.171 176.361 139.28C176.255 139.388 176.195 139.534 176.195 139.686C176.195 139.838 176.255 139.984 176.361 140.093C176.467 140.202 176.612 140.264 176.764 140.268Z" fill="#485467"/>
<path d="M313.016 136.136C314.898 136.136 316.423 134.577 316.423 132.653C316.423 130.729 314.898 129.169 313.016 129.169C311.134 129.169 309.609 130.729 309.609 132.653C309.609 134.577 311.134 136.136 313.016 136.136Z" fill="#485467"/>
<path d="M301.245 136.136C303.127 136.136 304.652 134.577 304.652 132.653C304.652 130.729 303.127 129.169 301.245 129.169C299.363 129.169 297.838 130.729 297.838 132.653C297.838 134.577 299.363 136.136 301.245 136.136Z" fill="#485467"/>
<path d="M289.474 136.136C291.356 136.136 292.881 134.577 292.881 132.653C292.881 130.729 291.356 129.169 289.474 129.169C287.592 129.169 286.067 130.729 286.067 132.653C286.067 134.577 287.592 136.136 289.474 136.136Z" fill="#485467"/>
<path d="M183.228 130.666C183.228 130.749 183.243 130.83 183.275 130.907C183.306 130.983 183.352 131.052 183.41 131.111C183.467 131.169 183.536 131.216 183.612 131.247C183.688 131.279 183.77 131.296 183.852 131.296H192.212C192.378 131.292 192.535 131.224 192.65 131.106C192.766 130.988 192.831 130.829 192.831 130.664C192.831 130.498 192.766 130.339 192.65 130.221C192.535 130.103 192.378 130.035 192.212 130.031H183.852C183.685 130.033 183.526 130.101 183.409 130.22C183.292 130.339 183.227 130.499 183.228 130.666Z" fill="#485467"/>
<path d="M183.228 133.043C183.228 133.125 183.243 133.207 183.275 133.283C183.306 133.359 183.352 133.429 183.41 133.487C183.467 133.546 183.536 133.592 183.612 133.624C183.688 133.656 183.77 133.672 183.852 133.673H192.212C192.378 133.669 192.535 133.601 192.651 133.483C192.767 133.364 192.831 133.205 192.831 133.04C192.831 132.875 192.767 132.716 192.651 132.597C192.535 132.479 192.378 132.411 192.212 132.407H183.852C183.685 132.409 183.526 132.477 183.409 132.596C183.292 132.715 183.227 132.876 183.228 133.043Z" fill="#485467"/>
<path d="M183.228 135.414C183.227 135.581 183.292 135.741 183.409 135.86C183.526 135.979 183.685 136.047 183.852 136.049H192.212C192.378 136.045 192.535 135.977 192.65 135.859C192.766 135.741 192.831 135.582 192.831 135.416C192.831 135.251 192.766 135.092 192.65 134.974C192.535 134.856 192.378 134.788 192.212 134.784H183.852C183.77 134.784 183.688 134.801 183.612 134.832C183.536 134.864 183.467 134.911 183.41 134.969C183.352 135.028 183.306 135.097 183.275 135.173C183.243 135.25 183.228 135.331 183.228 135.414Z" fill="#485467"/>
<path d="M185.812 153.78H182.808C181.897 153.78 181.158 154.519 181.158 155.429C181.158 156.34 181.897 157.079 182.808 157.079H185.812C186.722 157.079 187.461 156.34 187.461 155.429C187.461 154.519 186.722 153.78 185.812 153.78Z" fill="#F5F9FF"/>
<path d="M220.169 153.78H217.165C216.254 153.78 215.516 154.519 215.516 155.429C215.516 156.34 216.254 157.079 217.165 157.079H220.169C221.08 157.079 221.818 156.34 221.818 155.429C221.818 154.519 221.08 153.78 220.169 153.78Z" fill="#F5F9FF"/>
<path d="M229.904 153.78H226.9C225.989 153.78 225.25 154.519 225.25 155.429C225.25 156.34 225.989 157.079 226.9 157.079H229.904C230.814 157.079 231.553 156.34 231.553 155.429C231.553 154.519 230.814 153.78 229.904 153.78Z" fill="#F5F9FF"/>
<path d="M210.824 153.505H192.153C191.242 153.505 190.504 154.244 190.504 155.155C190.504 156.065 191.242 156.804 192.153 156.804H210.824C211.735 156.804 212.473 156.065 212.473 155.155C212.473 154.244 211.735 153.505 210.824 153.505Z" fill="#F5F9FF"/>
<path d="M256.634 153.505H237.963C237.052 153.505 236.314 154.244 236.314 155.155C236.314 156.065 237.052 156.804 237.963 156.804H256.634C257.544 156.804 258.283 156.065 258.283 155.155C258.283 154.244 257.544 153.505 256.634 153.505Z" fill="#F5F9FF"/>
<path d="M194.974 161.225H191.97C191.059 161.225 190.32 161.963 190.32 162.874C190.32 163.785 191.059 164.523 191.97 164.523H194.974C195.884 164.523 196.623 163.785 196.623 162.874C196.623 161.963 195.884 161.225 194.974 161.225Z" fill="#F5F9FF"/>
<path d="M229.331 161.225H226.327C225.416 161.225 224.678 161.963 224.678 162.874C224.678 163.785 225.416 164.523 226.327 164.523H229.331C230.242 164.523 230.98 163.785 230.98 162.874C230.98 161.963 230.242 161.225 229.331 161.225Z" fill="#F5F9FF"/>
<path d="M239.066 161.225H236.061C235.151 161.225 234.412 161.963 234.412 162.874C234.412 163.785 235.151 164.523 236.061 164.523H239.066C239.976 164.523 240.715 163.785 240.715 162.874C240.715 161.963 239.976 161.225 239.066 161.225Z" fill="#F5F9FF"/>
<path d="M219.986 160.95H201.315C200.404 160.95 199.666 161.688 199.666 162.599C199.666 163.51 200.404 164.248 201.315 164.248H219.986C220.896 164.248 221.635 163.51 221.635 162.599C221.635 161.688 220.896 160.95 219.986 160.95Z" fill="#F5F9FF"/>
<path d="M265.796 160.95H247.125C246.214 160.95 245.476 161.688 245.476 162.599C245.476 163.51 246.214 164.248 247.125 164.248H265.796C266.706 164.248 267.445 163.51 267.445 162.599C267.445 161.688 266.706 160.95 265.796 160.95Z" fill="#F5F9FF"/>
<path d="M204.136 168.669H201.132C200.221 168.669 199.482 169.407 199.482 170.318C199.482 171.229 200.221 171.967 201.132 171.967H204.136C205.046 171.967 205.785 171.229 205.785 170.318C205.785 169.407 205.046 168.669 204.136 168.669Z" fill="#F5F9FF"/>
<path d="M238.493 168.669H235.489C234.578 168.669 233.84 169.407 233.84 170.318C233.84 171.229 234.578 171.967 235.489 171.967H238.493C239.404 171.967 240.142 171.229 240.142 170.318C240.142 169.407 239.404 168.669 238.493 168.669Z" fill="#F5F9FF"/>
<path d="M248.228 168.669H245.223C244.313 168.669 243.574 169.407 243.574 170.318C243.574 171.229 244.313 171.967 245.223 171.967H248.228C249.138 171.967 249.877 171.229 249.877 170.318C249.877 169.407 249.138 168.669 248.228 168.669Z" fill="#F5F9FF"/>
<path d="M229.148 168.394H210.477C209.566 168.394 208.828 169.132 208.828 170.043C208.828 170.954 209.566 171.692 210.477 171.692H229.148C230.058 171.692 230.797 170.954 230.797 170.043C230.797 169.132 230.058 168.394 229.148 168.394Z" fill="#F5F9FF"/>
<path d="M274.958 168.394H256.287C255.376 168.394 254.638 169.132 254.638 170.043C254.638 170.954 255.376 171.692 256.287 171.692H274.958C275.868 171.692 276.607 170.954 276.607 170.043C276.607 169.132 275.868 168.394 274.958 168.394Z" fill="#F5F9FF"/>
<path d="M213.298 176.113H210.294C209.383 176.113 208.644 176.852 208.644 177.763C208.644 178.673 209.383 179.412 210.294 179.412H213.298C214.208 179.412 214.947 178.673 214.947 177.763C214.947 176.852 214.208 176.113 213.298 176.113Z" fill="#F5F9FF"/>
<path d="M247.655 176.113H244.651C243.74 176.113 243.002 176.852 243.002 177.763C243.002 178.673 243.74 179.412 244.651 179.412H247.655C248.566 179.412 249.304 178.673 249.304 177.763C249.304 176.852 248.566 176.113 247.655 176.113Z" fill="#F5F9FF"/>
<path d="M257.39 176.113H254.385C253.475 176.113 252.736 176.852 252.736 177.763C252.736 178.673 253.475 179.412 254.385 179.412H257.39C258.3 179.412 259.039 178.673 259.039 177.763C259.039 176.852 258.3 176.113 257.39 176.113Z" fill="#F5F9FF"/>
<path d="M238.31 175.839H219.639C218.728 175.839 217.99 176.577 217.99 177.488C217.99 178.399 218.728 179.137 219.639 179.137H238.31C239.22 179.137 239.959 178.399 239.959 177.488C239.959 176.577 239.22 175.839 238.31 175.839Z" fill="#F5F9FF"/>
<path d="M220.169 205.716H217.165C216.254 205.716 215.516 206.454 215.516 207.365C215.516 208.276 216.254 209.014 217.165 209.014H220.169C221.08 209.014 221.818 208.276 221.818 207.365C221.818 206.454 221.08 205.716 220.169 205.716Z" fill="#F5F9FF"/>
<path d="M229.904 205.716H226.9C225.989 205.716 225.25 206.454 225.25 207.365C225.25 208.276 225.989 209.014 226.9 209.014H229.904C230.814 209.014 231.553 208.276 231.553 207.365C231.553 206.454 230.814 205.716 229.904 205.716Z" fill="#F5F9FF"/>
<path d="M256.634 205.99H237.963C237.052 205.99 236.314 206.729 236.314 207.64C236.314 208.551 237.052 209.289 237.963 209.289H256.634C257.544 209.289 258.283 208.551 258.283 207.64C258.283 206.729 257.544 205.99 256.634 205.99Z" fill="#F5F9FF"/>
<path d="M185.812 205.716H182.808C181.897 205.716 181.158 206.454 181.158 207.365C181.158 208.276 181.897 209.014 182.808 209.014H185.812C186.722 209.014 187.461 208.276 187.461 207.365C187.461 206.454 186.722 205.716 185.812 205.716Z" fill="#F5F9FF"/>
<path d="M210.824 205.99H192.153C191.242 205.99 190.504 206.729 190.504 207.64C190.504 208.551 191.242 209.289 192.153 209.289H210.824C211.735 209.289 212.473 208.551 212.473 207.64C212.473 206.729 211.735 205.99 210.824 205.99Z" fill="#F5F9FF"/>
<path d="M194.974 198.271H191.97C191.059 198.271 190.32 199.01 190.32 199.92C190.32 200.831 191.059 201.57 191.97 201.57H194.974C195.884 201.57 196.623 200.831 196.623 199.92C196.623 199.01 195.884 198.271 194.974 198.271Z" fill="#F5F9FF"/>
<path d="M229.331 198.271H226.327C225.416 198.271 224.678 199.01 224.678 199.92C224.678 200.831 225.416 201.57 226.327 201.57H229.331C230.242 201.57 230.98 200.831 230.98 199.92C230.98 199.01 230.242 198.271 229.331 198.271Z" fill="#F5F9FF"/>
<path d="M239.066 198.271H236.061C235.151 198.271 234.412 199.01 234.412 199.92C234.412 200.831 235.151 201.57 236.061 201.57H239.066C239.976 201.57 240.715 200.831 240.715 199.92C240.715 199.01 239.976 198.271 239.066 198.271Z" fill="#F5F9FF"/>
<path d="M219.986 198.546H201.315C200.404 198.546 199.666 199.284 199.666 200.195C199.666 201.106 200.404 201.844 201.315 201.844H219.986C220.896 201.844 221.635 201.106 221.635 200.195C221.635 199.284 220.896 198.546 219.986 198.546Z" fill="#F5F9FF"/>
<path d="M204.136 190.827H201.132C200.221 190.827 199.482 191.565 199.482 192.476C199.482 193.387 200.221 194.125 201.132 194.125H204.136C205.046 194.125 205.785 193.387 205.785 192.476C205.785 191.565 205.046 190.827 204.136 190.827Z" fill="#F5F9FF"/>
<path d="M238.493 190.827H235.489C234.578 190.827 233.84 191.565 233.84 192.476C233.84 193.387 234.578 194.125 235.489 194.125H238.493C239.404 194.125 240.142 193.387 240.142 192.476C240.142 191.565 239.404 190.827 238.493 190.827Z" fill="#F5F9FF"/>
<path d="M248.228 190.827H245.223C244.313 190.827 243.574 191.565 243.574 192.476C243.574 193.387 244.313 194.125 245.223 194.125H248.228C249.138 194.125 249.877 193.387 249.877 192.476C249.877 191.565 249.138 190.827 248.228 190.827Z" fill="#F5F9FF"/>
<path d="M229.148 191.102H210.477C209.566 191.102 208.828 191.84 208.828 192.751C208.828 193.662 209.566 194.4 210.477 194.4H229.148C230.058 194.4 230.797 193.662 230.797 192.751C230.797 191.84 230.058 191.102 229.148 191.102Z" fill="#F5F9FF"/>
<path d="M213.298 183.382H210.294C209.383 183.382 208.644 184.121 208.644 185.032C208.644 185.942 209.383 186.681 210.294 186.681H213.298C214.208 186.681 214.947 185.942 214.947 185.032C214.947 184.121 214.208 183.382 213.298 183.382Z" fill="#F5F9FF"/>
<path d="M247.655 183.382H244.651C243.74 183.382 243.002 184.121 243.002 185.032C243.002 185.942 243.74 186.681 244.651 186.681H247.655C248.566 186.681 249.304 185.942 249.304 185.032C249.304 184.121 248.566 183.382 247.655 183.382Z" fill="#F5F9FF"/>
<path d="M257.39 183.382H254.385C253.475 183.382 252.736 184.121 252.736 185.032C252.736 185.942 253.475 186.681 254.385 186.681H257.39C258.3 186.681 259.039 185.942 259.039 185.032C259.039 184.121 258.3 183.382 257.39 183.382Z" fill="#F5F9FF"/>
<path d="M238.31 183.657H219.639C218.728 183.657 217.99 184.396 217.99 185.306C217.99 186.217 218.728 186.956 219.639 186.956H238.31C239.22 186.956 239.959 186.217 239.959 185.306C239.959 184.396 239.22 183.657 238.31 183.657Z" fill="#F5F9FF"/>
<path d="M200.368 312.637C200.242 312.7 200.116 312.763 199.99 312.821C199.194 313.216 198.392 313.605 197.585 313.989C195.168 315.14 192.721 316.234 190.244 317.27C183.725 319.997 177.036 322.298 170.219 324.159C169.074 317.018 167.963 300.177 166.898 287.79C166.697 285.46 166.497 283.289 166.297 281.371C166.106 278.852 165.745 276.35 165.214 273.881C165.162 273.687 165.087 273.501 164.991 273.325C165.1 274.316 165.214 277.271 165.323 281.371C165.38 283.289 165.432 285.46 165.489 287.79C165.758 299.713 166.039 315.936 166.319 325.173C165.523 325.367 164.722 325.562 163.92 325.745C163.416 325.865 162.907 325.98 162.397 326.089C161.779 326.226 161.16 326.364 160.542 326.49C159.895 326.627 159.248 326.759 158.6 326.885C148.026 328.962 137.275 330.005 126.499 330C125.783 330 125.073 329.994 124.358 329.988C124.14 329.988 123.922 329.983 123.699 329.977C123.069 329.966 122.416 329.954 121.752 329.937C109.018 329.585 96.3664 327.761 84.0507 324.503L84.5489 287.79L84.6347 281.371L84.6691 278.937C84.3854 279.72 84.2157 280.54 84.1652 281.371C83.9648 282.934 83.7586 285.15 83.5525 287.79C82.768 297.96 81.9606 314.367 81.1246 323.701C71.2239 320.883 63.986 318.312 54.9385 313.788C54.5892 313.617 54.2342 313.439 53.8849 313.262C53.9479 312.821 54.0166 312.38 54.0796 311.927C55.1046 304.804 53.8963 295.532 55.0301 287.79C55.8948 281.818 56.7881 276.08 57.6871 271.212C58.7751 265.354 59.8802 260.75 60.974 258.511C62.2337 255.928 63.4935 253.386 64.7132 250.952C65.24 249.904 65.7573 248.875 66.265 247.865C66.5399 247.321 66.8147 246.783 67.0839 246.256C68.3093 243.857 69.466 241.641 70.5253 239.677C71.2697 238.296 71.9569 237.048 72.5868 235.954C73.3255 234.666 73.9782 233.601 74.5165 232.793C78.4922 226.767 84.4078 222.279 91.2829 220.075L91.4547 220.029L91.6208 220.098L91.8097 220.184L102.724 216.192L107.597 204.459L132.626 202.918L136.669 205.993L138.736 207.568L140.941 209.246L144.995 212.333L146.146 212.688L147.858 213.215L159.568 216.811L159.688 216.759L159.86 216.805C166.116 218.808 171.593 222.711 175.527 227.972C175.917 228.476 176.277 228.997 176.627 229.523C177.577 230.932 178.86 233.16 180.372 235.954C180.996 237.105 181.654 238.354 182.347 239.677C182.765 240.472 186.373 251.731 189.883 263.229C193.164 273.995 196.359 284.973 196.777 287.79C196.852 288.311 196.932 288.838 197.006 289.359C197.482 292.618 197.951 295.899 198.403 299.1C199.073 303.847 199.726 308.428 200.35 312.523C200.356 312.563 200.362 312.597 200.368 312.637Z" fill="#485467"/>
<path opacity="0.2" d="M173.843 271.186L168.977 252.407L164.681 268.611L173.843 271.186Z" fill="#1F252F"/>
<path d="M9.06422 270.968C9.3165 271.703 9.79507 272.338 10.4312 272.784C11.0673 273.229 11.8283 273.462 12.6048 273.448L27.7746 273.058C28.5569 273.042 29.3131 272.774 29.9305 272.294C30.5478 271.813 30.9929 271.146 31.1994 270.391L33.3461 247.435C34.1077 247.78 34.9369 247.951 35.7728 247.934C37.2396 247.897 38.6317 247.279 39.6429 246.216C40.654 245.152 41.2014 243.731 41.1646 242.264C41.1278 240.797 40.5098 239.405 39.4465 238.394C38.3833 237.383 36.962 236.835 35.4952 236.872C35.1611 236.871 34.8278 236.906 34.501 236.976C34.1456 236.591 33.7137 236.285 33.233 236.078C32.7523 235.87 32.2335 235.766 31.71 235.771L8.37532 236.374C8.18175 236.381 7.98917 236.405 7.79973 236.445C7.288 236.541 6.80265 236.745 6.37633 237.043C5.95001 237.342 5.59262 237.729 5.32823 238.177C5.06383 238.626 4.89856 239.125 4.84354 239.643C4.78851 240.161 4.84502 240.684 5.00924 241.178L9.06422 270.968ZM33.7863 245.876L35.3139 240.406C35.4876 239.774 35.4917 239.108 35.3255 238.474C35.3997 238.473 35.4651 238.438 35.5392 238.438C36.5866 238.416 37.5998 238.811 38.3567 239.535C39.1137 240.26 39.5525 241.255 39.577 242.302C39.6016 243.349 39.2098 244.364 38.4876 245.123C37.7654 245.882 36.7717 246.323 35.7245 246.35C35.0473 246.372 34.3772 246.208 33.7863 245.876Z" fill="#273140"/>
<path d="M7.79968 236.445C8.29682 239.288 13.8861 241.286 20.6069 240.939C26.787 240.654 31.8403 238.484 32.7661 235.912C32.4235 235.811 32.0672 235.763 31.71 235.771L8.37528 236.374C8.18171 236.381 7.98912 236.405 7.79968 236.445Z" fill="#485467"/>
<path d="M21.8387 258.354C21.8694 258.346 21.8986 258.333 21.9251 258.316L25.2195 256.159C25.2593 256.133 25.292 256.098 25.3147 256.056C25.3373 256.014 25.3492 255.967 25.3492 255.92C25.3493 255.872 25.3374 255.825 25.3148 255.784C25.2922 255.742 25.2595 255.706 25.2197 255.68L21.7955 253.437C21.7641 253.417 21.7289 253.402 21.6919 253.395C21.6549 253.388 21.6168 253.388 21.5799 253.396C21.543 253.403 21.5079 253.418 21.4768 253.439C21.4456 253.461 21.4189 253.488 21.3983 253.519C21.3776 253.551 21.3634 253.586 21.3564 253.623C21.3494 253.66 21.3498 253.698 21.3576 253.735C21.3653 253.772 21.3803 253.807 21.4016 253.838C21.4229 253.869 21.4501 253.896 21.4818 253.916L24.5401 255.919L21.6117 257.836C21.555 257.874 21.5133 257.93 21.494 257.994C21.4746 258.059 21.479 258.129 21.5062 258.191C21.5335 258.253 21.5818 258.304 21.6427 258.333C21.7035 258.363 21.773 258.37 21.8387 258.354H21.8387Z" fill="#7865FF"/>
<path d="M16.6354 258.594C16.6907 258.58 16.7406 258.549 16.7786 258.507C16.8166 258.464 16.841 258.411 16.8488 258.355C16.8565 258.298 16.8473 258.241 16.8221 258.19C16.7969 258.138 16.7571 258.096 16.7076 258.068L13.671 256.327L16.606 254.146C16.6361 254.124 16.6616 254.096 16.6809 254.064C16.7002 254.031 16.7129 253.996 16.7184 253.958C16.7239 253.921 16.722 253.883 16.7128 253.847C16.7036 253.81 16.6874 253.776 16.665 253.746C16.6426 253.716 16.6145 253.69 16.5822 253.671C16.55 253.652 16.5142 253.639 16.4771 253.634C16.4399 253.628 16.402 253.63 16.3656 253.639C16.3291 253.648 16.2949 253.665 16.2647 253.687L12.9786 256.128C12.9404 256.156 12.9099 256.194 12.8898 256.237C12.8697 256.28 12.8606 256.327 12.8634 256.375C12.8662 256.422 12.8808 256.468 12.9058 256.509C12.9308 256.549 12.9656 256.582 13.0068 256.606L16.4226 258.564C16.4871 258.601 16.5634 258.612 16.6354 258.594Z" fill="#7865FF"/>
<path d="M21.5111 260.243C21.5388 260.236 21.5652 260.225 21.5895 260.21C21.6217 260.191 21.6496 260.165 21.6719 260.135C21.6941 260.104 21.7101 260.07 21.719 260.033C21.7279 259.997 21.7296 259.959 21.7238 259.922C21.718 259.885 21.705 259.849 21.6854 259.817L17.0154 252.138C16.9757 252.074 16.9121 252.028 16.8384 252.01C16.7648 251.992 16.6871 252.005 16.6224 252.044C16.5577 252.083 16.5113 252.147 16.4932 252.22C16.4752 252.294 16.487 252.372 16.5261 252.437L21.1961 260.115C21.228 260.167 21.2758 260.208 21.3325 260.231C21.3891 260.254 21.4517 260.258 21.5111 260.243Z" fill="#7865FF"/>
<path d="M449.594 313.26C449.245 313.438 448.89 313.615 448.541 313.787C439.493 318.311 432.255 320.882 422.355 323.7C421.519 314.365 420.711 297.959 419.927 287.789C419.721 285.149 419.515 282.933 419.314 281.37C419.264 280.538 419.094 279.719 418.81 278.936L418.845 281.37L418.93 287.789L419.429 324.501C407.113 327.76 394.462 329.584 381.727 329.936C381.063 329.953 380.41 329.964 379.78 329.976C379.557 329.982 379.339 329.987 379.122 329.987C378.406 329.993 377.696 329.999 376.98 329.999C363.56 330.009 350.189 328.388 337.16 325.171C337.44 315.935 337.721 299.711 337.99 287.789C338.047 285.458 338.099 283.288 338.156 281.37C338.265 277.269 338.38 274.315 338.488 273.324C338.392 273.499 338.317 273.686 338.265 273.879C337.735 276.349 337.373 278.851 337.183 281.37C336.982 283.288 336.782 285.458 336.581 287.789C335.516 300.175 334.406 317.017 333.26 324.158C326.444 322.297 319.755 319.996 313.236 317.269C309.8 315.837 306.425 314.293 303.112 312.636C303.742 308.513 304.4 303.892 305.076 299.099C305.603 295.382 306.147 291.563 306.702 287.789C307.561 281.959 336.742 219.008 343.619 216.804L343.791 216.758L343.911 216.81L355.621 213.213L357.333 212.686L358.484 212.331L362.538 209.245L364.743 207.567L366.81 205.992L370.853 202.917L395.882 204.458L400.755 216.191L411.67 220.182L411.859 220.096L412.025 220.028L412.196 220.074C419.071 222.278 424.987 226.765 428.963 232.792C429.501 233.599 430.154 234.665 430.893 235.953C431.522 237.047 432.21 238.295 432.954 239.675C434.013 241.639 435.17 243.856 436.395 246.255C436.665 246.782 436.939 247.32 437.214 247.864C437.724 248.872 438.241 249.901 438.766 250.951C439.986 253.384 441.246 255.927 442.505 258.51C443.599 260.749 444.704 265.353 445.792 271.211C446.691 276.078 447.584 281.816 448.449 287.789C449.583 295.531 448.375 304.802 449.4 311.926C449.463 312.378 449.531 312.819 449.594 313.26Z" fill="#485467"/>
<path d="M376.187 198.705C392.264 198.705 405.297 185.672 405.297 169.594C405.297 153.516 392.264 140.483 376.187 140.483C360.11 140.483 347.077 153.516 347.077 169.594C347.077 185.672 360.11 198.705 376.187 198.705Z" fill="#FFB6B6"/>
<path opacity="0.2" d="M329.636 271.186L334.501 252.407L338.798 268.611L329.636 271.186Z" fill="#1F252F"/>
<path d="M459.111 258.951C457.371 282.933 459.174 293.493 449.566 313.266C440.823 317.545 431.717 321.037 422.355 323.7C421.381 323.975 420.406 324.242 419.429 324.501C407.113 327.76 394.462 329.584 381.727 329.936C381.063 329.953 380.41 329.964 379.78 329.976C379.557 329.982 379.339 329.987 379.122 329.987C378.406 329.993 377.696 329.999 376.98 329.999C363.56 330.009 350.189 328.388 337.16 325.171C335.854 324.851 334.554 324.513 333.26 324.158C326.444 322.297 319.755 319.996 313.236 317.269C309.8 315.837 306.425 314.293 303.112 312.636C302.362 312.258 301.611 311.88 300.873 311.491C297.076 304.814 294.918 296.694 294.872 286.936C297.5 270.123 453.305 244.451 459.111 258.951Z" fill="#273140"/>
<path opacity="0.2" d="M459.107 263.058C459.196 261.573 459.295 260.039 459.411 258.442C453.605 243.943 297.8 269.615 295.171 286.427C295.179 287.969 295.245 289.465 295.355 290.925C301.72 274.331 449.737 249.932 459.107 263.058Z" fill="#1F252F"/>
<path d="M290.997 260.082L303.786 253.687L293.128 224.911L290.32 210.399C289.955 208.514 289.102 206.757 287.845 205.305C286.589 203.853 284.973 202.756 283.16 202.123C281.347 201.491 279.399 201.346 277.512 201.702C275.625 202.058 273.865 202.903 272.407 204.153C270.246 206.005 268.89 208.624 268.623 211.457C268.357 214.291 269.202 217.117 270.98 219.339L281.405 232.372L290.997 260.082Z" fill="#FFB6B6"/>
<path d="M303.786 248.358L286.734 256.884L299.674 297.433C300.604 300.345 302.27 302.967 304.51 305.045C306.751 307.124 309.491 308.588 312.464 309.296C316.13 310.169 319.979 309.852 323.453 308.39C326.927 306.928 329.844 304.398 331.783 301.166L366.098 242.347C368.529 238.294 369.28 233.451 368.189 228.852C367.098 224.253 364.252 220.263 360.259 217.734C358.112 216.374 355.702 215.481 353.187 215.114C350.671 214.747 348.107 214.913 345.66 215.603C343.213 216.292 340.939 217.489 338.986 219.116C337.032 220.743 335.443 222.762 334.322 225.044L313.377 269.674L303.786 248.358Z" fill="#485467"/>
<path d="M119.969 196.696C137.658 196.696 151.999 182.356 151.999 164.665C151.999 146.975 137.658 132.634 119.969 132.634C102.279 132.634 87.9392 146.975 87.9392 164.665C87.9392 182.356 102.279 196.696 119.969 196.696Z" fill="#A0616A"/>
<path d="M88.3239 142.592C90.9281 139.082 94.6713 136.586 97.5344 133.284C99.1053 131.472 100.41 129.419 102.176 127.797C105.457 124.783 110.046 123.548 114.499 123.394C119.379 123.269 124.22 124.294 128.63 126.387C133.04 128.48 136.895 131.582 139.884 135.442C142.211 134.077 144.539 132.713 146.866 131.348C147.786 133.768 148.705 136.188 149.625 138.609C150.379 137.953 151.342 137.585 152.342 137.571C153.341 137.557 154.314 137.898 155.087 138.532C155.859 139.167 156.383 140.054 156.563 141.038C156.744 142.021 156.571 143.037 156.075 143.905C156.628 142.193 159.166 141.83 160.565 142.961C161.965 144.091 162.339 146.103 162.111 147.888C161.824 149.845 160.959 151.673 159.626 153.135C158.293 154.596 156.553 155.626 154.63 156.091C151.593 156.768 148.058 156.057 145.627 158C143.678 159.557 143.089 162.393 141.1 163.899C138.65 165.754 135.186 164.896 132.139 165.306C126.809 166.024 122.589 171.475 123.229 176.815C122.747 175.13 122.24 173.397 121.146 172.028C120.051 170.659 118.208 169.733 116.529 170.237C113.754 171.068 113.3 174.851 113.973 177.669C115.756 185.142 122.516 197.221 122.516 197.221C113.739 200.683 103.282 197.409 96.5101 190.839C89.7381 184.269 86.2111 174.966 84.6747 165.657C83.3719 157.762 83.5565 149.018 88.3239 142.592Z" fill="#273140"/>
<path d="M412.668 185.642C418.761 171.67 415.309 158.813 407.88 151.993V151.987C404.96 145.442 401.078 140.391 396.634 139.206C394.487 137.826 392.402 136.205 390.089 135.381C389.011 134.977 387.863 134.796 386.714 134.848C385.564 134.9 384.437 135.185 383.401 135.684L382.221 135.369C381.219 132.809 380.045 132.758 378.74 134.441C373.712 132.099 369.183 131.051 365.151 131.051C352.004 131.051 344.228 142.184 342.166 155.641L353.155 158.567L356.974 152.48L355.211 159.117L361.275 160.726C370.505 172.746 359.459 200.473 345.459 215.9C348.792 214.978 352.111 214.2 355.417 213.564L367.43 195.949L359.986 211.983C363.851 211.416 368.782 211.96 374.17 213.054C375.985 210.683 376.942 207.522 376.003 204.705C377.538 207.676 378.597 210.871 379.141 214.171C390.513 216.948 406.025 218.374 414.385 219.428C421.14 217.223 421.158 192.319 412.668 185.642Z" fill="#273140"/>
<path d="M416.632 138.117C421.096 148.111 412.089 152.41 403.839 152.289C396.384 152.179 390.048 146.942 389.668 139.495C389.485 135.919 390.73 132.417 393.129 129.759C395.528 127.102 398.885 125.506 402.461 125.323C409.907 124.943 413.592 131.309 416.632 138.117Z" fill="#273140"/>
<path d="M209.57 300.816L202.218 288.552L226.663 270.006L236.828 259.274C238.148 257.879 239.811 256.856 241.651 256.306C243.491 255.756 245.443 255.699 247.312 256.139C249.181 256.58 250.902 257.504 252.302 258.818C253.702 260.132 254.733 261.791 255.292 263.628C256.119 266.351 255.857 269.288 254.56 271.821C253.262 274.354 251.032 276.284 248.339 277.203L232.544 282.596L209.57 300.816Z" fill="#A0616A"/>
<path d="M214.884 300.411L203.437 309.952L200.35 312.523L199.99 312.821C199.194 313.216 198.392 313.605 197.585 313.989C195.168 315.14 192.721 316.234 190.244 317.27C183.725 319.997 177.036 322.298 170.219 324.159C168.925 324.514 167.625 324.852 166.32 325.173C165.524 325.367 164.722 325.562 163.92 325.745C163.416 325.865 162.907 325.98 162.397 326.089C161.779 326.226 161.16 326.364 160.542 326.49C159.895 326.627 159.248 326.759 158.601 326.885C156.859 325.228 155.473 323.235 154.526 321.026C153.579 318.817 153.091 316.438 153.092 314.035C153.092 313.88 153.092 313.72 153.098 313.559L154.936 266.413L155.749 245.518C155.874 240.792 157.842 236.303 161.233 233.009C164.624 229.716 169.168 227.879 173.895 227.891C174.445 227.891 174.989 227.92 175.527 227.972C175.917 228.476 176.277 228.997 176.627 229.524C177.577 230.932 178.86 233.16 180.372 235.954C180.996 237.105 181.654 238.354 182.347 239.677C182.765 240.473 186.373 251.731 189.883 263.229L188.337 275.238L185.542 296.884L197.006 289.359L205.08 284.057L206.037 285.654L208.528 289.812L213.338 297.829L214.884 300.411Z" fill="#485467"/>
<path d="M208.608 286.937C208.602 287.911 208.579 288.867 208.528 289.812C208.408 292.418 208.106 295.013 207.623 297.577C206.832 301.882 205.422 306.051 203.437 309.952C203.173 310.473 202.893 310.988 202.607 311.492C201.868 311.882 201.118 312.259 200.368 312.637C200.242 312.7 200.116 312.763 199.99 312.821C196.8 314.407 193.551 315.89 190.244 317.27C183.725 319.997 177.036 322.298 170.219 324.159C168.925 324.514 167.625 324.852 166.319 325.173C163.771 325.803 161.198 326.373 158.6 326.885C148.026 328.962 137.275 330.005 126.499 330C125.783 330 125.073 329.994 124.358 329.989C124.14 329.989 123.922 329.983 123.699 329.977C123.069 329.966 122.416 329.954 121.752 329.937C109.018 329.585 96.3664 327.761 84.0507 324.503C83.0715 324.245 82.0961 323.978 81.1246 323.701C71.7624 321.038 62.656 317.546 53.9135 313.267C44.3049 293.494 46.1087 282.934 44.3679 258.952C47.9411 250.024 108.393 256.329 154.936 266.413C167.568 269.151 179.169 272.169 188.337 275.238C197.808 278.405 204.674 281.623 207.365 284.646C207.994 285.272 208.426 286.069 208.608 286.937Z" fill="#273140"/>
<path opacity="0.2" d="M44.3714 263.058C44.2825 261.573 44.1831 260.039 44.0671 258.442C49.8735 243.943 205.679 269.615 208.307 286.427C208.3 287.969 208.234 289.465 208.123 290.925C201.758 274.331 53.741 249.932 44.3714 263.058Z" fill="#1F252F"/>
</svg>
